<svg width="51" height="32" viewBox="0 0 51 32" fill="none" xmlns="http://www.w3.org/2000/svg">
<path d="M46.8809 0C44.6624 0 42.6024 1.66337 42.2062 3.72277C41.8101 5.78218 43.3947 7.44554 45.6924 7.44554C47.9108 7.44554 49.9708 5.78218 50.367 3.72277C50.6047 1.66337 49.0993 0 46.8809 0Z" fill="white"/>
<path d="M18.9918 24.2375H22.2402H26.9941C27.0733 25.7425 28.1033 26.4554 29.6879 26.5346C29.7671 26.5346 29.9256 26.5346 30.0048 26.5346C31.5894 26.4554 32.9364 25.6633 33.0948 24.5544C33.1741 23.9207 32.6194 23.6831 30.8764 23.287L26.9148 22.5742C26.6772 22.495 26.4395 22.495 26.2018 22.4158C26.1225 22.4158 26.0433 22.3365 25.9641 22.3365C25.8056 22.3365 25.6472 22.2573 25.4887 22.1781C25.4095 22.1781 25.3302 22.0989 25.1718 22.0989C25.0133 22.0197 24.9341 22.0197 24.7756 21.9405C24.3795 21.7821 23.9833 21.6237 23.5872 21.3861L23.5079 21.3068C23.3495 21.2276 23.2702 21.1484 23.1118 21.0692C21.2102 19.8019 20.4179 17.8217 20.8933 15.3663C21.131 13.8613 21.7649 12.6732 22.6364 11.6435C21.2102 9.6633 18.3579 8.396 14.3172 8.396C7.50335 8.396 3.46259 11.9603 2.51182 16.1583H10.0387C10.4349 14.7326 11.6233 14.0989 13.208 14.0989C14.6341 14.0989 15.5056 14.7326 15.3472 15.9207V15.9999C15.1095 17.3465 13.5249 17.7425 9.7218 18.0593C4.96797 18.4554 1.00644 20.3564 0.134902 25.3464C-0.657404 29.8613 2.11567 31.9999 6.47335 31.9999C9.48411 31.9999 11.861 30.9702 13.6833 28.4356H13.8418L13.2872 31.6831H20.9725L21.2895 29.8613C19.6256 28.4356 18.8333 26.5346 18.9918 24.2375ZM14.2379 23.5247C13.921 25.5841 11.9403 26.7722 10.0387 26.7722C8.61258 26.7722 7.74104 26.0593 7.97873 24.792C8.13719 23.6039 9.16719 22.7326 11.148 22.4158C12.4949 22.1781 13.6833 21.9405 14.5549 21.5445L14.2379 23.5247Z" fill="white"/>
<path d="M41.1763 8.79199L40.7801 11.3266C41.8894 12.5939 42.3647 14.2573 42.127 16.2375H39.9878H34.7586C34.8378 14.8118 33.8078 13.9405 32.3817 13.9405C30.7178 13.9405 29.2124 14.7325 29.054 15.9207C28.9748 16.3959 29.1332 16.792 30.8763 17.1088L35.3924 17.9801C35.6301 18.0593 35.8678 18.0593 36.1055 18.1385C36.1847 18.1385 36.264 18.2177 36.3432 18.2177C36.5017 18.2177 36.5809 18.2969 36.7394 18.2969C36.8186 18.2969 36.9771 18.3761 37.0563 18.3761C37.1355 18.3761 37.2147 18.4553 37.2147 18.4553C40.384 19.485 41.8101 21.5444 41.3347 24.5543C40.9386 26.8514 39.5917 28.6731 37.6109 29.9405L37.294 31.683H45.534L49.337 8.87119H41.1763V8.79199Z" fill="white"/>
</svg>
