<svg width="76" height="48" viewBox="0 0 76 48" fill="none" xmlns="http://www.w3.org/2000/svg">
<g clip-path="url(#clip0_356_31)">
<path d="M69.9026 0C66.5947 0 63.5231 2.48019 62.9324 5.55089C62.3417 8.6216 64.7045 11.1018 68.1305 11.1018C71.4384 11.1018 74.5099 8.6216 75.1006 5.55089C75.455 2.48019 73.2104 0 69.9026 0Z" fill="#124680"/>
<path d="M28.318 36.1398H33.1616H40.2499C40.368 38.3837 41.9038 39.4467 44.2666 39.5648C44.3847 39.5648 44.621 39.5648 44.7391 39.5648C47.1019 39.4467 49.1102 38.2656 49.3465 36.6122C49.4646 35.6674 48.6377 35.313 46.0386 34.7225L40.1318 33.6596C39.7773 33.5415 39.4229 33.5415 39.0685 33.4234C38.9504 33.4234 38.8322 33.3053 38.7141 33.3053C38.4778 33.3053 38.2415 33.1872 38.0053 33.0691C37.8871 33.0691 37.769 32.951 37.5327 32.951C37.2964 32.8329 37.1783 32.8329 36.942 32.7148C36.3513 32.4785 35.7606 32.2423 35.17 31.888L35.0518 31.7699C34.8155 31.6518 34.6974 31.5337 34.4611 31.4156C31.6258 29.5259 30.4444 26.5733 31.1533 22.9121C31.5077 20.6681 32.4528 18.8966 33.7523 17.3612C31.6258 14.4086 27.3729 12.519 21.3478 12.519C11.188 12.519 5.16294 17.8336 3.74528 24.0932H14.9684C15.5591 21.9673 17.3311 21.0224 19.6939 21.0224C21.8204 21.0224 23.1199 21.9673 22.8836 23.7388V23.8569C22.5292 25.8647 20.1664 26.4552 14.4958 26.9277C7.40756 27.5182 1.50066 30.3527 0.201148 37.7932C-0.980231 44.5252 3.1546 47.714 9.65218 47.714C14.1414 47.714 17.6856 46.1786 20.4027 42.3993H20.639L19.812 47.2415H31.2714L31.744 44.5252C29.2631 42.3993 28.0817 39.5648 28.318 36.1398ZM21.2297 35.0768C20.7571 38.1475 17.8037 39.9191 14.9684 39.9191C12.8419 39.9191 11.5424 38.8562 11.8968 36.9665C12.1331 35.1949 13.6689 33.8958 16.6223 33.4234C18.6307 33.0691 20.4027 32.7148 21.7022 32.1242L21.2297 35.0768Z" fill="#124680"/>
<path d="M61.3967 13.1094L60.806 16.8887C62.46 18.7784 63.1688 21.2586 62.8144 24.2112H59.6247H51.8275C51.9457 22.0853 50.4099 20.7862 48.2834 20.7862C45.8025 20.7862 43.5579 21.9672 43.3216 23.7388C43.2035 24.4474 43.4398 25.0379 46.0388 25.5103L52.7726 26.8095C53.1271 26.9276 53.4815 26.9276 53.8359 27.0457C53.954 27.0457 54.0722 27.1638 54.1903 27.1638C54.4266 27.1638 54.5447 27.2819 54.781 27.2819C54.8991 27.2819 55.1354 27.4 55.2535 27.4C55.3717 27.4 55.4898 27.5181 55.4898 27.5181C60.2153 29.0535 62.3418 32.1242 61.633 36.6121C61.0423 40.0371 59.034 42.7535 56.0805 44.6432L55.608 47.2415H67.8943L73.5649 13.2275H61.3967V13.1094Z" fill="#124680"/>
</g>
<defs>
<clipPath id="clip0_356_31">
<rect width="76" height="48" fill="white"/>
</clipPath>
</defs>
</svg>
